<?xml version="1.0" encoding="UTF-8"?>
<!DOCTYPE svg PUBLIC "-//W3C//DTD SVG 1.1//EN" "http://www.w3.org/Graphics/SVG/1.1/DTD/svg11.dtd">
<svg xmlns="http://www.w3.org/2000/svg" version="1.1" width="128px" height="128px" style="shape-rendering:geometricPrecision; text-rendering:geometricPrecision; image-rendering:optimizeQuality; fill-rule:evenodd; clip-rule:evenodd" xmlns:xlink="http://www.w3.org/1999/xlink">
<g><path style="opacity:0.898" fill="#e3a60f" d="M 109.5,29.5 C 108.527,29.0133 107.527,28.5133 106.5,28C 103.606,24.2829 100.606,20.7829 97.5,17.5C 99.209,4.64075 106.209,0.474083 118.5,5C 123.259,9.49077 124.759,14.9908 123,21.5C 120.125,26.8562 115.625,29.5228 109.5,29.5 Z M 112.5,22.5 C 111.5,18.1667 108.833,15.5 104.5,14.5C 109.532,7.66616 113.865,8.16616 117.5,16C 116.749,18.9124 115.082,21.0791 112.5,22.5 Z"/></g>
<g><path style="opacity:0.952" fill="#feca29" d="M 97.5,17.5 C 100.606,20.7829 103.606,24.2829 106.5,28C 107.527,28.5133 108.527,29.0133 109.5,29.5C 123.117,51.295 123.951,73.6283 112,96.5C 92.8711,122.317 68.0378,129.817 37.5,119C 9.58825,104.002 -1.24509,80.8358 5,49.5C 17.3772,16.2203 41.2105,2.38701 76.5,8C 84.0582,10.1156 91.0582,13.2823 97.5,17.5 Z"/></g>
<g><path style="opacity:1" fill="#fff296" d="M 48.5,9.5 C 57.9836,8.93985 67.3169,9.77318 76.5,12C 38.4926,9.00958 15.6593,26.1763 8,63.5C 8.39302,35.614 21.893,17.614 48.5,9.5 Z"/></g>
<g><path style="opacity:0.943" fill="#fdc826" d="M 104.5,14.5 C 108.833,15.5 111.5,18.1667 112.5,22.5C 111.207,24.2959 109.707,25.9625 108,27.5C 106.5,23.3333 103.667,20.5 99.5,19C 101.037,17.2927 102.704,15.7927 104.5,14.5 Z"/></g>
<g><path style="opacity:1" fill="#e3aa1f" d="M 52.5,16.5 C 82.563,14.4235 101.73,27.7568 110,56.5C 112.216,86.2719 99.0493,105.105 70.5,113C 41.5529,115.617 22.7195,103.117 14,75.5C 10.8068,45.1899 23.6401,25.5232 52.5,16.5 Z"/></g>
<g><path style="opacity:1" fill="#fefdfc" d="M 58.5,19.5 C 58.4734,25.0159 60.64,26.3492 65,23.5C 65.49,22.2068 65.6567,20.8734 65.5,19.5C 75.4096,20.4626 84.0763,24.1293 91.5,30.5C 88.1667,37.1667 89.8333,38.8333 96.5,35.5C 102.88,42.9367 106.547,51.6033 107.5,61.5C 101.984,61.4734 100.651,63.64 103.5,68C 104.793,68.49 106.127,68.6567 107.5,68.5C 106.527,78.431 102.86,87.0976 96.5,94.5C 93.1822,91.4146 90.8488,91.9146 89.5,96C 89.3866,97.6991 90.0532,98.8658 91.5,99.5C 84.2494,106.258 75.5827,109.925 65.5,110.5C 65.6148,105.672 63.4481,104.339 59,106.5C 58.51,107.793 58.3433,109.127 58.5,110.5C 48.3703,110.097 39.7036,106.43 32.5,99.5C 35.8333,92.8333 34.1667,91.1667 27.5,94.5C 20.742,87.2494 17.0753,78.5827 16.5,68.5C 22.0159,68.5266 23.3492,66.36 20.5,62C 19.2068,61.51 17.8734,61.3433 16.5,61.5C 16.9089,51.3602 20.5756,42.6936 27.5,35.5C 29.0106,37.4411 31.0106,37.9411 33.5,37C 34.8557,34.5859 34.5224,32.4193 32.5,30.5C 39.7506,23.742 48.4173,20.0753 58.5,19.5 Z"/></g>
<g><path style="opacity:1" fill="#e1c6af" d="M 58.5,19.5 C 60.8333,19.5 63.1667,19.5 65.5,19.5C 65.6567,20.8734 65.49,22.2068 65,23.5C 60.64,26.3492 58.4734,25.0159 58.5,19.5 Z"/></g>
<g><path style="opacity:1" fill="#b59880" d="M 32.5,30.5 C 34.5224,32.4193 34.8557,34.5859 33.5,37C 31.0106,37.9411 29.0106,37.4411 27.5,35.5C 28.8333,33.5 30.5,31.8333 32.5,30.5 Z"/></g>
<g><path style="opacity:1" fill="#f34635" d="M 91.5,30.5 C 93.5,31.8333 95.1667,33.5 96.5,35.5C 89.8333,38.8333 88.1667,37.1667 91.5,30.5 Z"/></g>
<g><path style="opacity:1" fill="#e1c5ae" d="M 67.5,50.5 C 65.9095,52.6326 63.9095,54.2993 61.5,55.5C 59.6316,54.7368 57.9649,53.7368 56.5,52.5C 58.1905,45.573 60.0238,38.573 62,31.5C 63.391,38.0816 65.2243,44.4149 67.5,50.5 Z"/></g>
<g><path style="opacity:1" fill="#f3473a" d="M 88.5,39.5 C 85.4325,47.3054 81.0992,54.3054 75.5,60.5C 73.9013,62.6038 72.068,64.6038 70,66.5C 69.7679,65.2625 69.2679,64.2625 68.5,63.5C 67.8333,60.8333 66.1667,59.1667 63.5,58.5C 62.7375,57.7321 61.7375,57.2321 60.5,57C 61.056,56.6174 61.3893,56.1174 61.5,55.5C 63.9095,54.2993 65.9095,52.6326 67.5,50.5C 73.3831,45.3023 80.0498,41.3023 87.5,38.5C 88.1067,38.6236 88.44,38.9569 88.5,39.5 Z"/></g>
<g><path style="opacity:1" fill="#b59680" d="M 56.5,52.5 C 57.9649,53.7368 59.6316,54.7368 61.5,55.5C 61.3893,56.1174 61.056,56.6174 60.5,57C 61.7375,57.2321 62.7375,57.7321 63.5,58.5C 59.5843,57.9609 56.5843,59.2942 54.5,62.5C 53.8333,62.8333 53.1667,63.1667 52.5,63.5C 51.2719,62.6935 50.2719,61.6935 49.5,60.5C 45.4356,54.3619 41.9356,48.0286 39,41.5C 44.7176,45.391 50.5509,49.0577 56.5,52.5 Z"/></g>
<g><path style="opacity:1" fill="#93cfde" d="M 63.5,58.5 C 66.1667,59.1667 67.8333,60.8333 68.5,63.5C 69.0391,67.4157 67.7058,70.4157 64.5,72.5C 56.8333,73.5 53.5,70.1667 54.5,62.5C 56.5843,59.2942 59.5843,57.9609 63.5,58.5 Z"/></g>
<g><path style="opacity:1" fill="#e0c5ae" d="M 49.5,60.5 C 50.2719,61.6935 51.2719,62.6935 52.5,63.5C 51.5849,65.7541 50.2516,67.7541 48.5,69.5C 41.7344,68.5246 35.0678,67.0246 28.5,65C 35.4076,63.0228 42.4076,61.5228 49.5,60.5 Z"/></g>
<g><path style="opacity:1" fill="#dac2af" d="M 88.5,39.5 C 88.3453,43.1495 87.1786,46.8162 85,50.5C 82.3076,53.6919 79.8076,57.0252 77.5,60.5C 83.1486,61.9987 88.8153,63.4987 94.5,65C 87.7886,67.1606 81.122,68.9939 74.5,70.5C 73.6091,69.7387 72.9424,68.7387 72.5,67.5C 73.4411,65.2279 74.7745,63.2279 76.5,61.5C 76.3764,60.8933 76.0431,60.56 75.5,60.5C 81.0992,54.3054 85.4325,47.3054 88.5,39.5 Z"/></g>
<g><path style="opacity:1" fill="#e2c7b1" d="M 16.5,61.5 C 17.8734,61.3433 19.2068,61.51 20.5,62C 23.3492,66.36 22.0159,68.5266 16.5,68.5C 16.5,66.1667 16.5,63.8333 16.5,61.5 Z"/></g>
<g><path style="opacity:1" fill="#e1c5af" d="M 107.5,61.5 C 107.5,63.8333 107.5,66.1667 107.5,68.5C 106.127,68.6567 104.793,68.49 103.5,68C 100.651,63.64 101.984,61.4734 107.5,61.5 Z"/></g>
<g><path style="opacity:1" fill="#377c8c" d="M 54.5,62.5 C 53.5,70.1667 56.8333,73.5 64.5,72.5C 62.1918,74.4707 59.8585,76.4707 57.5,78.5C 51.2895,84.4324 44.2895,89.0991 36.5,92.5C 35.6236,92.6309 34.9569,92.2975 34.5,91.5C 37.6668,83.1556 42.3335,75.8222 48.5,69.5C 50.2516,67.7541 51.5849,65.7541 52.5,63.5C 53.1667,63.1667 53.8333,62.8333 54.5,62.5 Z"/></g>
<g><path style="opacity:1" fill="#ad927c" d="M 75.5,60.5 C 76.0431,60.56 76.3764,60.8933 76.5,61.5C 74.7745,63.2279 73.4411,65.2279 72.5,67.5C 72.9424,68.7387 73.6091,69.7387 74.5,70.5C 77.9423,76.4491 81.609,82.2824 85.5,88C 79.2929,84.5568 72.9596,81.0568 66.5,77.5C 65.3991,76.4017 64.0657,76.235 62.5,77C 60.8043,78.1764 59.1376,79.343 57.5,80.5C 57.5,79.8333 57.5,79.1667 57.5,78.5C 59.8585,76.4707 62.1918,74.4707 64.5,72.5C 67.7058,70.4157 69.0391,67.4157 68.5,63.5C 69.2679,64.2625 69.7679,65.2625 70,66.5C 72.068,64.6038 73.9013,62.6038 75.5,60.5 Z"/></g>
<g><path style="opacity:1" fill="#e0c4ac" d="M 66.5,77.5 C 65.3223,84.2294 63.8223,90.896 62,97.5C 60.3505,92.0715 58.8505,86.7382 57.5,81.5C 57.5,81.1667 57.5,80.8333 57.5,80.5C 59.1376,79.343 60.8043,78.1764 62.5,77C 64.0657,76.235 65.3991,76.4017 66.5,77.5 Z"/></g>
<g><path style="opacity:1" fill="#b6babb" d="M 57.5,78.5 C 57.5,79.1667 57.5,79.8333 57.5,80.5C 57.5,80.8333 57.5,81.1667 57.5,81.5C 51.0726,86.1326 44.2393,90.1326 37,93.5C 36.6012,93.2716 36.4346,92.9382 36.5,92.5C 44.2895,89.0991 51.2895,84.4324 57.5,78.5 Z"/></g>
<g><path style="opacity:1" fill="#b3967e" d="M 32.5,99.5 C 30.5,98.1667 28.8333,96.5 27.5,94.5C 34.1667,91.1667 35.8333,92.8333 32.5,99.5 Z"/></g>
<g><path style="opacity:1" fill="#b5987f" d="M 96.5,94.5 C 95.1667,96.5 93.5,98.1667 91.5,99.5C 90.0532,98.8658 89.3866,97.6991 89.5,96C 90.8488,91.9146 93.1822,91.4146 96.5,94.5 Z"/></g>
<g><path style="opacity:1" fill="#e1c5ae" d="M 65.5,110.5 C 63.1667,110.5 60.8333,110.5 58.5,110.5C 58.3433,109.127 58.51,107.793 59,106.5C 63.4481,104.339 65.6148,105.672 65.5,110.5 Z"/></g>
</svg>
